<?xml version="1.0" encoding="UTF-8"?>
<svg width="72px" viewBox="0 0 52.917 131.67" xmlns="http://www.w3.org/2000/svg" xmlns:xlink="http://www.w3.org/1999/xlink">
 <defs>
  <linearGradient id="linearGradient7987" x1="500" x2="600" y1="357.6" y2="500" gradientTransform="matrix(.26458 0 0 .26458 168.7 -512.44)" gradientUnits="userSpaceOnUse">
   <stop stop-color="#ff4d06" offset="0"/>
   <stop stop-color="#cc3a00" offset="1"/>
  </linearGradient>
 </defs>
 <g transform="translate(-65.012 -66.369)">
  <g transform="translate(-221.95 510.65)" fill="#110c0a">
   <path d="m299.73-347.49v8.2853a8.5098 8.5098 0 0 0-10.272 1.341 8.5098 8.5098 0 0 0 0 12.035 8.5098 8.5098 0 0 0 12.035 0 8.5098 8.5098 0 0 0 2.4872-6.0177h5e-3v-15.643zm-4.2545 11.389a4.2549 4.2549 0 0 1 3.052 1.2904 4.2549 4.2549 0 0 1 1.203 2.9647 4.2549 4.2549 0 0 1-4.255 4.2545 4.2549 4.2549 0 0 1-4.2551-4.2545 4.2549 4.2549 0 0 1 4.2551-4.255z"/>
   <path d="m311.44-341.12a6.3824 6.3824 0 0 0-3.3414 0.85318 6.3824 6.3824 0 0 0-3.1915 5.5273v10.638h4.255v-10.638a2.1275 2.1275 0 0 1 2.1275-2.1275 2.1275 2.1275 0 0 1 2.1275 2.1275v10.638h4.255v-10.638a2.1275 2.1275 0 0 1 2.1275-2.1275 2.1275 2.1275 0 0 1 2.127 2.1275v10.638h4.255v-10.638a6.3824 6.3824 0 0 0-3.191-5.5273 6.3824 6.3824 0 0 0-6.3825 0 6.3824 6.3824 0 0 0-1.0676 0.7767 6.3824 6.3824 0 0 0-1.0599-0.7767 6.3824 6.3824 0 0 0-3.0406-0.85318z"/>
   <path d="m327.11-340.28v10.637a6.3824 6.3824 0 0 0 3.1912 5.5274 6.3824 6.3824 0 0 0 5.3187 0.48533v4.6246a2.1275 2.1275 0 0 1-2.1275 2.1275 2.1275 2.1275 0 0 1-2.1275-2.1275h-4.2549a6.3824 6.3824 0 0 0 3.1912 5.5274 6.3824 6.3824 0 0 0 6.3824 0 6.3824 6.3824 0 0 0 3.1912-5.5274v-21.275h-4.2549v10.637a2.1275 2.1275 0 0 1-2.1275 2.1275 2.1275 2.1275 0 0 1-2.1275-2.1275v-10.637z"/>
  </g>
  <g transform="translate(-209.52 510.65)">
   <path d="m327.45-444.29-26.458 26.458v37.677l26.458-1e-5z" fill="url(#linearGradient7987)"/>
   <circle transform="rotate(-45)" cx="481.64" cy="-55.972" r="26.458" fill="#ff4d06"/>
   <circle cx="300.99" cy="-380.15" r="13.229" fill="#050505"/>
   <circle transform="rotate(45)" cx="-56.761" cy="-487.81" r="2.94" fill="#fff"/>
  </g>
 </g>
</svg>
